<svg width="100" height="200" viewBox="0 0 100 200" fill="none" xmlns="http://www.w3.org/2000/svg">
<rect width="100" height="100" transform="matrix(1 0 0 -1 0 200)" fill="#79C8C7"/>
<path d="M0 0C-55.2285 0 -100 44.7715 -100 100C-100 155.228 -55.2285 200 0 200C55.2285 200 100 155.228 100 100C100 44.7715 55.2285 0 0 0ZM0 67C18.2254 67 33 81.7746 33 100C33 118.225 18.2254 133 0 133C-18.2254 133 -33 118.225 -33 100C-33 81.7746 -18.2254 67 0 67Z" fill="#012F34"/>
<path d="M96 200H100V196H96V200ZM89 200H93V196H89V200ZM82 200H86V196H82V200ZM75 200H79V196H75V200ZM68 200H72V196H68V200ZM61 200H65V196H61V200ZM54 200H58V196H54V200ZM47 200H51V196H47V200ZM96 192H100V188H96V192ZM89 192H93V188H89V192ZM82 192H86V188H82V192ZM75 192H79V188H75V192ZM68 192H72V188H68V192ZM61 192H65V188H61V192ZM54 192H58V188H54V192ZM47 192H51V188H47V192ZM96 184H100V180H96V184ZM89 184H93V180H89V184ZM82 184H86V180H82V184ZM75 184H79V180H75V184ZM68 184H72V180H68V184ZM61 184H65V180H61V184ZM54 184H58V180H54V184ZM47 184H51V180H47V184ZM96 176H100V172H96V176ZM89 176H93V172H89V176ZM82 176H86V172H82V176ZM75 176H79V172H75V176ZM68 176H72V172H68V176ZM61 176H65V172H61V176ZM54 176H58V172H54V176ZM47 176H51V172H47V176ZM96 168H100V164H96V168ZM89 168H93V164H89V168ZM82 168H86V164H82V168ZM75 168H79V164H75V168ZM68 168H72V164H68V168ZM61 168H65V164H61V168ZM54 168H58V164H54V168ZM47 168H51V164H47V168ZM96 160H100V156H96V160ZM89 160H93V156H89V160ZM82 160H86V156H82V160ZM75 160H79V156H75V160ZM68 160H72V156H68V160ZM61 160H65V156H61V160ZM54 160H58V156H54V160ZM47 160H51V156H47V160Z" fill="#F67E7E"/>
</svg>
