<svg width="72" height="72" viewBox="0 0 72 72" fill="none" xmlns="http://www.w3.org/2000/svg">
<g id="icon-feature-productivity">
<circle id="Oval" cx="44" cy="44" r="28" fill="#2C6269"/>
<path id="Combined Shape" d="M52.5 18.667C53.1439 18.6671 53.666 19.19 53.666 19.834V53.667H54.833C55.4769 53.667 55.9997 54.1891 56 54.833C56 55.477 55.477 56 54.833 56H1.16699C0.522992 56 0 55.477 0 54.833C0.000155943 54.1891 0.523088 53.667 1.16699 53.667H2.33301V40.834C2.33301 40.1901 2.85613 39.6671 3.5 39.667H10.5C11.1439 39.6671 11.666 40.1901 11.666 40.834V53.667H16.333V29.167C16.333 28.5231 16.8561 28.0002 17.5 28H24.5C25.1439 28.0002 25.666 28.5231 25.666 29.167V53.667H30.333V33.834C30.333 33.1901 30.8561 32.6671 31.5 32.667H38.5C39.1439 32.6671 39.666 33.19 39.666 33.834V53.667H44.333V19.834C44.333 19.1901 44.8561 18.6671 45.5 18.667H52.5ZM4.66602 53.667H9.33301V42H4.66602V53.667ZM18.666 53.667H23.333V30.333H18.666V53.667ZM32.666 53.667H37.333V35H32.666V53.667ZM46.666 53.667H51.333V21H46.666V53.667ZM49 0C51.5736 0.000156655 53.666 2.09339 53.666 4.66699C53.6659 7.24047 51.5735 9.33285 49 9.33301C48.1355 9.33296 47.3258 9.09576 46.6309 8.68457L39.0176 16.2979C39.4288 16.9929 39.666 17.8024 39.666 18.667C39.6659 21.2405 37.5735 23.3329 35 23.333C32.4265 23.3329 30.3332 21.2405 30.333 18.667C30.333 18.4032 30.3552 18.1445 30.3975 17.8926L25.0234 16.3594C24.2119 17.7383 22.713 18.6659 21 18.666C19.9494 18.666 18.979 18.3173 18.1982 17.7295L11.0801 23.4053C11.453 24.0757 11.666 24.8467 11.666 25.667C11.6659 28.2405 9.57347 30.3329 7 30.333C4.42653 30.3329 2.33316 28.2405 2.33301 25.667C2.33301 23.0934 4.42643 21.0002 7 21C7.90434 21.0001 8.74924 21.2591 9.46484 21.7061L16.7402 15.9043C16.4792 15.3226 16.333 14.678 16.333 14C16.3332 11.4265 18.4265 9.33317 21 9.33301C23.5735 9.33316 25.6659 11.4265 25.666 14C25.666 14.0384 25.664 14.077 25.6631 14.1152L31.3672 15.7422C32.2233 14.6808 33.5332 14.0001 35 14C35.864 14.0001 36.6736 14.2366 37.3682 14.6475L44.9814 7.03516C44.5704 6.34048 44.3331 5.53117 44.333 4.66699C44.333 2.09339 46.4264 0.000157194 49 0ZM7 23.333C5.71213 23.3332 4.66602 24.3814 4.66602 25.667C4.66617 26.9524 5.71223 27.9998 7 28C8.28777 27.9998 9.33285 26.9524 9.33301 25.667C9.33301 25.032 9.0774 24.4557 8.66406 24.0342C8.65464 24.0251 8.64589 24.0153 8.63672 24.0059C8.21549 23.5904 7.63754 23.3331 7 23.333ZM35 16.333C33.7121 16.3332 32.666 17.3814 32.666 18.667C32.6662 19.9524 33.7122 20.9998 35 21C36.2878 20.9998 37.3329 19.9524 37.333 18.667C37.333 17.3815 36.2879 16.3332 35 16.333ZM21 11.666C19.7122 11.6662 18.6662 12.7145 18.666 14C18.6661 14.5414 18.853 15.04 19.1641 15.4365C19.169 15.4425 19.1748 15.448 19.1797 15.4541C19.1895 15.4664 19.1978 15.4797 19.207 15.4922C19.6353 16.0057 20.2799 16.3329 21 16.333C22.2878 16.3329 23.3329 15.2855 23.333 14C23.3329 12.7146 22.2878 11.6662 21 11.666ZM49 2.33301C47.7121 2.33317 46.666 3.38139 46.666 4.66699C46.6661 5.30157 46.9219 5.87761 47.335 6.29883C47.3405 6.3042 47.347 6.30895 47.3525 6.31445C47.3574 6.31935 47.3614 6.32511 47.3662 6.33008C47.7874 6.74371 48.3639 6.99992 49 7C50.2878 6.99984 51.3329 5.95236 51.333 4.66699C51.333 3.38149 50.2879 2.33316 49 2.33301Z" fill="#79C8C7"/>
</g>
</svg>
