<svg width="72" height="72" viewBox="0 0 72 72" fill="none" xmlns="http://www.w3.org/2000/svg">
<g id="icon-feature-experience">
<circle id="Oval Copy 4" cx="44" cy="44" r="28" fill="#2C6269"/>
<g id="Group 9">
<path id="Combined Shape" d="M28.4959 0C34.1564 0.000258395 38.7625 4.60617 38.7625 10.2666V14.9336L38.9539 14.9385C40.9243 15.0384 42.4959 16.6723 42.4959 18.667C42.4958 20.7257 40.8214 22.4004 38.7625 22.4004H38.5477C38.2589 26.0671 36.1963 29.2713 33.1619 31.0977V32.667H36.1121C38.6031 32.6672 40.6288 34.6934 40.6287 37.1846C40.6294 37.2541 40.6254 37.3233 40.6229 37.3926L40.7479 37.4014C44.9637 37.9624 48.0954 41.5429 48.0955 45.7334V56H46.2293V45.7334C46.2293 42.4733 43.7934 39.6891 40.5613 39.2578L40.1531 39.2314C40.0703 39.3975 39.9795 39.5604 39.8758 39.7168L35.0291 46.9502V56H33.1619V42.9521C31.5578 44.1413 29.6059 44.7998 27.5623 44.7998C25.5183 44.7998 23.5668 44.1412 21.9627 42.9521V56H20.0955V46.9502L15.2508 39.7197C15.1464 39.5625 15.0548 39.3991 14.9715 39.2324L14.5027 39.2637C11.3322 39.6893 8.8963 42.4733 8.8963 45.7334V56H7.02911V45.7334C7.02911 41.5428 10.1612 37.9637 14.3162 37.4072L14.5008 37.3936C14.498 37.3208 14.4943 37.248 14.4949 37.1748C14.4949 34.6931 16.5214 32.667 19.0125 32.667H21.9627V31.1289C19.294 29.5483 17.3034 26.8622 16.7205 23.5771C16.6627 23.2506 16.6186 22.9211 16.5906 22.5908L16.576 22.4004H16.3621C14.3035 22.4002 12.6299 20.7256 12.6297 18.667C12.6297 16.6082 14.3033 14.9338 16.3621 14.9336H16.3631L16.3621 10.5674C14.1574 9.51677 12.6299 7.26765 12.6297 4.66699C12.6297 4.15184 13.0481 3.7334 13.5633 3.7334H14.0643C13.7451 3.18368 13.5633 2.54565 13.5633 1.86621V0.933594C13.5633 0.418565 13.9809 0.000207068 14.4959 0H28.4959ZM18.2293 46.667C18.7443 46.667 19.1627 47.0837 19.1629 47.5996V53.2002C19.1628 53.7162 18.7444 54.1328 18.2293 54.1328C17.7142 54.1328 17.2958 53.7162 17.2957 53.2002V47.5996C17.2959 47.0836 17.7143 46.667 18.2293 46.667ZM36.8963 46.667C37.4121 46.6673 37.8288 47.0838 37.8289 47.5996V53.2002C37.8288 53.7161 37.4122 54.1326 36.8963 54.1328C36.3802 54.1328 35.9628 53.7162 35.9627 53.2002V47.5996C35.9629 47.0836 36.3803 46.667 36.8963 46.667ZM33.1619 35.6719C33.1582 36.1376 33.4893 36.5289 33.9373 36.6055H34.0955C34.6117 36.6055 35.0292 37.0229 35.0291 37.5391V43.5967L38.3231 38.6807C38.615 38.2412 38.7681 37.7262 38.7625 37.1934C38.7625 35.7235 37.5735 34.5334 36.1121 34.5332H33.1619V35.6719ZM19.0135 34.5332C17.5519 34.5332 16.3632 35.7223 16.3631 37.1836C16.3575 37.725 16.5105 38.2412 16.8045 38.6826L20.0955 43.5947V37.5391C20.0955 37.0229 20.514 36.6055 21.0291 36.6055H21.1883C21.636 36.5287 21.9655 36.1376 21.9627 35.6787V34.5332H19.0135ZM31.2957 31.999C30.7236 32.2117 30.1285 32.381 29.5135 32.5C28.8621 32.6157 28.2123 32.6719 27.5731 32.6719C26.2728 32.6719 25.0092 32.44 23.8289 32.0117V35.6719C23.8372 36.8823 23.0677 37.9369 21.9627 38.3262V40.4463C23.3937 42.0298 25.4155 42.9335 27.5623 42.9336C29.7092 42.9336 31.7309 42.0295 33.1619 40.4443V38.3252C32.0563 37.9359 31.2866 36.8808 31.2957 35.6641V31.999ZM21.8924 11.2002C21.4783 14.0384 19.2578 15.7497 18.2293 16.4014V19.5996L18.45 22.4404C18.4724 22.7072 18.5089 22.9795 18.5565 23.25C19.4393 28.221 24.2037 31.547 29.1727 30.665C33.3399 29.8587 36.4425 26.3235 36.702 22.0713L36.8983 19.5273L36.8973 16.4023C35.8694 15.7515 33.6465 14.04 33.2322 11.2002H21.8924ZM31.0223 23.9932C29.6419 25.3726 27.8059 26.1328 25.8543 26.1338H25.6961V24.2666H25.8543C27.3075 24.2656 28.6744 23.7004 29.7029 22.6729L31.0223 23.9932ZM28.4285 17.1475L27.074 20.5332H28.4959V22.4004H25.6961C25.3862 22.4004 25.0962 22.246 24.9227 21.9902C24.7492 21.7345 24.7141 21.4075 24.8289 21.1201L26.6951 16.4541L28.4285 17.1475ZM16.3621 16.7998C15.3329 16.8 14.4959 17.6377 14.4959 18.667C14.4961 19.6962 15.333 20.533 16.3621 20.5332H16.4315L16.3651 19.6719L16.3641 16.7998H16.3621ZM38.7625 19.5996L38.6912 20.5332H38.7625C39.792 20.5332 40.6295 19.6963 40.6297 18.667C40.6297 17.6374 39.792 16.7998 38.7625 16.7998V19.5996ZM21.9627 15.8662C22.9936 15.8663 23.8289 16.7025 23.8289 17.7334C23.8289 18.7642 22.9935 19.5995 21.9627 19.5996C20.9318 19.5996 20.0956 18.7643 20.0955 17.7334C20.0955 16.7024 20.9318 15.8662 21.9627 15.8662ZM33.1629 15.8662C34.1937 15.8664 35.0291 16.7026 35.0291 17.7334C35.0291 18.7642 34.1936 19.5994 33.1629 19.5996C32.132 19.5996 31.2958 18.7643 31.2957 17.7334C31.2957 16.7024 32.132 15.8662 33.1629 15.8662ZM35.1307 11.2002C35.4025 12.4557 36.1831 13.4148 36.8963 14.0596V11.2002H35.1307ZM18.2293 14.0576C18.9422 13.4128 19.7233 12.4549 19.9949 11.2002H19.1629C18.8461 11.2002 18.5342 11.1756 18.2293 11.1318V14.0576ZM15.4295 1.86719C15.4298 2.89651 16.2674 3.7334 17.2967 3.7334C17.8114 3.73387 18.2293 4.15213 18.2293 4.66699C18.2292 5.18172 17.8113 5.59914 17.2967 5.59961H14.5906C15.0103 7.66014 16.7936 9.23291 18.9529 9.3291L19.1629 9.33301H36.8436C36.3777 5.13895 32.8122 1.86743 28.4959 1.86719H15.4295Z" fill="#79C8C7"/>
</g>
</g>
</svg>
