<svg width="72" height="72" viewBox="0 0 72 72" fill="none" xmlns="http://www.w3.org/2000/svg">
<g id="icon-feature-implementation">
<circle id="Oval Copy" cx="44" cy="44" r="28" fill="#2C6269"/>
<path id="Combined Shape" d="M31.7188 0C32.9249 0 33.9062 0.981384 33.9062 2.1875V5.41797C35.974 5.95584 37.9477 6.7728 39.792 7.85449L42.0762 5.57129C42.9289 4.71863 44.3162 4.71871 45.1689 5.57129L50.4287 10.8311C51.2813 11.6839 51.2814 13.0717 50.4287 13.9248L48.1455 16.208C49.2272 18.0523 50.0442 20.026 50.582 22.0938H53.8125C55.0186 22.0938 56 23.0751 56 24.2812V31.7188C56 32.9249 55.0186 33.9062 53.8125 33.9062H50.5752C50.0356 35.9709 49.2174 37.9409 48.1357 39.7822L50.4287 42.0762C51.2811 42.9288 51.281 44.3162 50.4287 45.1689L45.1689 50.4287C44.3161 51.2813 42.9283 51.2814 42.0752 50.4287L39.7754 48.1279C37.9352 49.205 35.9673 50.0185 33.9062 50.5547V53.8125C33.9062 55.0186 32.9249 56 31.7188 56H24.2812C23.0751 56 22.0938 55.0186 22.0938 53.8125V50.5469C20.0358 50.009 18.0716 49.1952 16.2354 48.1182L13.9248 50.4287C13.0717 51.2814 11.6839 51.2813 10.8311 50.4287L5.57129 45.1689C4.71871 44.3162 4.71863 42.9289 5.57129 42.0762L7.88184 39.7646C6.80481 37.9284 5.99101 35.9642 5.45312 33.9062H2.1875C0.981384 33.9062 0 32.9249 0 31.7188V24.2812C0 23.0751 0.981384 22.0938 2.1875 22.0938H5.44531C5.98146 20.0325 6.79514 18.0652 7.87207 16.2256L5.57129 13.9238C4.71863 13.0711 4.71871 11.6838 5.57129 10.8311L10.8311 5.57129C11.6839 4.71869 13.0717 4.71857 13.9248 5.57129L16.2178 7.86523C18.0592 6.78304 20.0289 5.96441 22.0938 5.4248V2.1875C22.0938 0.981384 23.0751 0 24.2812 0H31.7188ZM24.2812 6.28613C24.2812 6.79923 23.9245 7.24341 23.4238 7.35449C21.0097 7.88897 18.7283 8.83569 16.6436 10.1689C16.2113 10.4458 15.644 10.3845 15.2812 10.0215L12.377 7.11816L7.11816 12.377L10.0283 15.2871C10.3909 15.6494 10.4523 16.2161 10.1768 16.6484C8.849 18.7329 7.90658 21.0125 7.37598 23.4229C7.26562 23.9243 6.82105 24.2812 6.30762 24.2812H2.1875V31.7188H6.31348C6.82657 31.7188 7.27072 32.0755 7.38184 32.5762C7.91461 34.9837 8.85919 37.2597 10.1875 39.3408C10.4631 39.7734 10.4018 40.3395 10.0391 40.7021L7.11816 43.623L12.377 48.8818L15.2979 45.9619C15.5093 45.7509 15.7889 45.6406 16.0713 45.6406C16.2745 45.6406 16.4781 45.6973 16.6592 45.8125C18.7403 47.1412 21.0167 48.0854 23.4238 48.6182C23.9249 48.7293 24.2812 49.1734 24.2812 49.6865V53.8125H31.7188V49.6924C31.7188 49.179 32.0757 48.7344 32.5771 48.624C34.9875 48.0934 37.2671 47.151 39.3516 45.8232C39.7838 45.5478 40.3501 45.6092 40.7129 45.9717L43.623 48.8818L48.8818 43.623L45.9785 40.7197C45.6154 40.3566 45.5542 39.7892 45.8311 39.3564C47.1644 37.2716 48.112 34.99 48.6465 32.5762C48.7572 32.0751 49.2012 31.7188 49.7139 31.7188H53.8125V24.2812H49.7197C49.2063 24.2812 48.7617 23.9242 48.6514 23.4229C48.1195 21.0055 47.1742 18.7202 45.8408 16.6318C45.5648 16.199 45.6265 15.6327 45.9893 15.2695L48.8818 12.377L43.623 7.11816L40.7305 10.0107C40.3677 10.3735 39.801 10.4352 39.3682 10.1592C37.2798 8.82579 34.9945 7.88097 32.5771 7.34863C32.0758 7.23832 31.7188 6.79366 31.7188 6.28027V2.1875H24.2812V6.28613ZM25.917 12.167C29.3182 11.7219 32.8295 12.3966 35.8057 14.0654C36.3324 14.3607 36.5198 15.027 36.2246 15.5537C35.9289 16.0806 35.263 16.268 34.7363 15.9727C29.3804 12.9691 22.6031 13.9082 18.2559 18.2559C12.8824 23.6289 12.8824 32.3716 18.2559 37.7451C20.9423 40.431 24.4715 41.774 28 41.7744C31.5295 41.7748 35.0582 40.4321 37.7451 37.7451C41.9462 33.544 42.9862 27.1529 40.333 21.8418C40.063 21.3013 40.2828 20.644 40.8232 20.374C41.3632 20.1042 42.0201 20.3239 42.29 20.8643C45.3645 27.0183 44.16 34.4244 39.292 39.292C36.1786 42.4049 32.0892 43.9619 28 43.9619C23.9108 43.9619 19.8214 42.4049 16.708 39.292C10.4818 33.0657 10.4818 22.9343 16.708 16.708C19.2194 14.1971 22.4042 12.6267 25.917 12.167ZM31.7637 20.2627C32.1904 19.8357 32.8833 19.8359 33.3105 20.2627L37.2334 24.1865C37.66 24.6133 37.66 25.3052 37.2334 25.7324L27.2295 35.7373C27.0241 35.9421 26.7459 36.0575 26.4561 36.0576C26.1663 36.0575 25.8875 35.9421 25.6826 35.7373L18.7656 28.8193C18.3391 28.3926 18.339 27.7005 18.7656 27.2734L22.6885 23.3496C22.8934 23.1447 23.172 23.0295 23.4619 23.0293C23.7517 23.0293 24.0303 23.1449 24.2354 23.3496L26.4561 25.5703L31.7637 20.2627ZM27.2295 27.8906C27.0245 28.0955 26.7459 28.2109 26.4561 28.2109C26.1662 28.2108 25.8876 28.0955 25.6826 27.8906L23.4619 25.6699L21.0859 28.0469L26.4561 33.416L34.9131 24.96L32.5371 22.583L27.2295 27.8906ZM38.7568 16.626C39.0442 16.626 39.3265 16.7427 39.5303 16.9463C39.7336 17.1496 39.8505 17.4319 39.8506 17.7197C39.8506 18.0081 39.7336 18.2898 39.5303 18.4932C39.3256 18.6977 39.0443 18.8135 38.7568 18.8135C38.4682 18.8134 38.187 18.6977 37.9824 18.4932C37.7791 18.2898 37.6631 18.0081 37.6631 17.7197C37.6632 17.4319 37.7791 17.1496 37.9824 16.9463C38.1857 16.7427 38.4682 16.6261 38.7568 16.626Z" fill="#79C8C7"/>
</g>
</svg>
