<svg width="358" height="100" viewBox="0 0 358 100" fill="none" xmlns="http://www.w3.org/2000/svg">
<g id="Group 7">
<g id="Group 4">
<circle id="Oval" cx="100" cy="100" r="100" fill="#2C6269"/>
<path id="Combined Shape" d="M258 0C313.228 0 358 44.7715 358 100C358 155.228 313.228 200 258 200C202.772 200 158 155.228 158 100C158 44.7715 202.772 0 258 0ZM258 67C239.775 67 225 81.7746 225 100C225 118.225 239.775 133 258 133C276.225 133 291 118.225 291 100C291 81.7746 276.225 67 258 67Z" fill="#012F34"/>
<rect id="Rectangle" x="358" y="43" width="43" height="43" transform="rotate(180 358 43)" fill="#79C8C7"/>
<path id="Combined Shape Copy" d="M233.514 0C288.742 0 333.514 44.7715 333.514 100C333.514 155.228 288.742 200 233.514 200C178.285 200 133.514 155.228 133.514 100C133.514 44.7715 178.285 0 233.514 0ZM233.514 67C215.288 67 200.514 81.7746 200.514 100C200.514 118.225 215.288 133 233.514 133C251.739 133 266.514 118.225 266.514 100C266.514 81.7746 251.739 67 233.514 67Z" fill="#F67E7E"/>
</g>
<path id="Combined Shape_2" d="M100 44H0V40H100V44ZM100 36H0V32H100V36ZM100 28H0V24H100V28ZM100 20H0V16H100V20ZM100 12H0V8H100V12ZM100 4H0V0H100V4Z" fill="#79C8C7"/>
</g>
</svg>
