<svg width="67" height="56" viewBox="0 0 67 56" fill="none" xmlns="http://www.w3.org/2000/svg">
<g id="icon-quotes">
<path id="&#226;&#128;&#156;" d="M31 0C29.2862 4.06891 27.9757 7.7818 27.0684 11.1387C26.1611 14.4955 25.7071 17.5474 25.707 20.2939C25.707 23.4474 26.1105 26.1439 26.917 28.3818C27.7234 30.6196 28.5553 32.8064 29.4121 34.9424C30.269 37.0786 30.6973 39.6222 30.6973 42.5723C30.6973 46.2342 29.2863 49.3875 26.4639 52.0322C23.6412 54.677 19.9107 56 15.2734 56C10.5353 56 6.80494 54.5251 4.08301 51.5752C1.36106 48.6251 0 44.454 0 39.0625C2.67765e-05 35.4005 0.856631 31.2299 2.57031 26.5508C4.28409 21.8715 6.5781 17.192 9.45117 12.5127C12.3243 7.83331 15.6264 3.66213 19.3564 0H31ZM67 0C65.2862 4.06891 63.9757 7.7818 63.0684 11.1387C62.1611 14.4955 61.7071 17.5474 61.707 20.2939C61.707 23.4474 62.1105 26.1439 62.917 28.3818C63.7234 30.6196 64.5553 32.8064 65.4121 34.9424C66.269 37.0786 66.6973 39.6222 66.6973 42.5723C66.6973 46.2342 65.2863 49.3875 62.4639 52.0322C59.6412 54.677 55.9107 56 51.2734 56C46.5353 56 42.8049 54.5251 40.083 51.5752C37.3611 48.6251 36 44.454 36 39.0625C36 35.4005 36.8566 31.2299 38.5703 26.5508C40.2841 21.8715 42.5781 17.192 45.4512 12.5127C48.3243 7.83331 51.6264 3.66213 55.3564 0H67Z" fill="#2C6269"/>
</g>
</svg>
