<svg width="200" height="144" viewBox="0 0 200 144" fill="none" xmlns="http://www.w3.org/2000/svg">
<g id="Group 8">
<rect id="Rectangle" x="100" y="144" width="100" height="100" transform="rotate(180 100 144)" fill="#2C6269"/>
<path id="Combined Shape Copy" d="M100 44C155.228 44 200 88.7715 200 144C200 199.228 155.228 244 100 244C44.7715 244 0 199.228 0 144C0 88.7715 44.7715 44 100 44ZM100 111C81.7746 111 67 125.775 67 144C67 162.225 81.7746 177 100 177C118.225 177 133 162.225 133 144C133 125.775 118.225 111 100 111Z" fill="#004047"/>
<path id="Combined Shape" d="M100 144H0V140H100V144ZM100 136H0V132H100V136ZM100 128H0V124H100V128ZM100 120H0V116H100V120ZM100 112H0V108H100V112ZM100 104H0V100H100V104Z" fill="#F67E7E"/>
<path id="Combined Shape_2" d="M4 44H0V40H4V44ZM11 44H7V40H11V44ZM18 44H14V40H18V44ZM25 44H21V40H25V44ZM32 44H28V40H32V44ZM39 44H35V40H39V44ZM46 44H42V40H46V44ZM53 44H49V40H53V44ZM4 36H0V32H4V36ZM11 36H7V32H11V36ZM18 36H14V32H18V36ZM25 36H21V32H25V36ZM32 36H28V32H32V36ZM39 36H35V32H39V36ZM46 36H42V32H46V36ZM53 36H49V32H53V36ZM4 28H0V24H4V28ZM11 28H7V24H11V28ZM18 28H14V24H18V28ZM25 28H21V24H25V28ZM32 28H28V24H32V28ZM39 28H35V24H39V28ZM46 28H42V24H46V28ZM53 28H49V24H53V28ZM4 20H0V16H4V20ZM11 20H7V16H11V20ZM18 20H14V16H18V20ZM25 20H21V16H25V20ZM32 20H28V16H32V20ZM39 20H35V16H39V20ZM46 20H42V16H46V20ZM53 20H49V16H53V20ZM4 12H0V8H4V12ZM11 12H7V8H11V12ZM18 12H14V8H18V12ZM25 12H21V8H25V12ZM32 12H28V8H32V12ZM39 12H35V8H39V12ZM46 12H42V8H46V12ZM53 12H49V8H53V12ZM4 4H0V0H4V4ZM11 4H7V0H11V4ZM18 4H14V0H18V4ZM25 4H21V0H25V4ZM32 4H28V0H32V4ZM39 4H35V0H39V4ZM46 4H42V0H46V4ZM53 4H49V0H53V4Z" fill="#79C8C7"/>
</g>
</svg>
