<svg width="200" height="100" viewBox="0 0 200 100" fill="none" xmlns="http://www.w3.org/2000/svg">
<g id="reviews-bg-right">
<rect id="Rectangle" width="100" height="100" transform="matrix(1 0 0 -1 100 100)" fill="#2C6269"/>
<path id="Combined Shape Copy" d="M100 0C44.7715 0 0 44.7715 0 100C0 155.228 44.7715 200 100 200C155.228 200 200 155.228 200 100C200 44.7715 155.228 0 100 0ZM100 67C118.225 67 133 81.7746 133 100C133 118.225 118.225 133 100 133C81.7746 133 67 118.225 67 100C67 81.7746 81.7746 67 100 67Z" fill="#012F34"/>
<path id="Combined Shape" d="M100 100H200V96H100V100ZM100 92H200V88H100V92ZM100 84H200V80H100V84ZM100 76H200V72H100V76ZM100 68H200V64H100V68ZM100 60H200V56H100V60Z" fill="#79C8C7"/>
</g>
</svg>
