<svg width="160" height="40" viewBox="0 0 160 40" fill="none" xmlns="http://www.w3.org/2000/svg">
<g id="myteam 2">
<path id="myteam" d="M46.248 20.29L50.8916 8.19238H57.498L44.6348 40H38.0723L43.0869 27.3438L35.042 8.19238H41.6475L46.248 20.29ZM85.7207 7.72363C88.7876 7.72363 91.3391 8.7653 93.374 10.8486C95.4087 12.9319 96.4337 15.6405 96.4482 18.9736C96.448 19.0086 96.4182 19.6632 96.3604 20.9375H81.0771C81.1934 22.0683 81.7601 22.9463 82.7773 23.5713C83.7948 24.1963 84.9436 24.5088 86.2227 24.5088C88.2139 24.5088 89.7328 23.8392 90.7793 22.5L95.292 25.6475C93.3588 28.5491 90.1831 29.9924 85.7646 29.9775C82.6978 29.9775 80.1105 28.9435 78.0029 26.875C75.9245 24.7769 74.8858 22.0835 74.8857 18.7949C74.8857 15.5063 75.9245 12.8348 78.0029 10.7812C80.0813 8.72775 82.654 7.70883 85.7207 7.72363ZM109.709 7.72363C110.814 7.72364 111.948 7.96889 113.11 8.45996C114.273 8.95099 115.167 9.65004 115.792 10.5576V8.19238H121.94V29.5312H115.792V27.0986C115.167 28.0063 114.265 28.7128 113.088 29.2188C111.911 29.7246 110.784 29.9624 109.709 29.9326C106.846 29.9326 104.36 28.906 102.253 26.8525C100.145 24.799 99.0908 22.1276 99.0908 18.8389C99.0909 15.5505 100.181 12.8796 102.361 10.8262C104.542 8.7726 106.991 7.73851 109.709 7.72363ZM24.5713 7.72363C27.1873 7.72365 29.1856 8.5639 30.5664 10.2451C31.9472 11.9267 32.6377 14.3159 32.6377 17.4111V29.5312H26.4902V18.1475C26.4902 16.8381 26.1775 15.8038 25.5527 15.0449C24.8987 14.286 24.0405 13.9062 22.9795 13.9062C21.9185 13.9063 21.0682 14.2633 20.4287 14.9775C19.7892 15.6918 19.4698 16.7781 19.4697 18.2363V29.5312H13.2559V18.0137C13.1977 16.734 12.8564 15.7292 12.2314 15C11.592 14.2709 10.7633 13.9064 9.74609 13.9062C8.72878 13.9062 7.88536 14.2558 7.2168 14.9551C6.54823 15.6544 6.21391 16.7484 6.21387 18.2363V29.5312H0V8.19238H6.21387V11.2949C6.72258 10.1937 7.44881 9.3225 8.39355 8.68262C9.41094 8.07253 10.5013 7.76761 11.6641 7.76758C14.9634 7.76758 17.1946 9.01777 18.3574 11.5176C19.8836 8.98791 21.9551 7.72363 24.5713 7.72363ZM68.3174 8.19238H72.6992V13.2139H68.3174V29.5312H62.1475V13.2139H58.3535V8.19238H62.1475V0H68.3174V8.19238ZM151.88 7.72363C154.496 7.72363 156.495 8.56363 157.876 10.2451C159.257 11.9267 159.947 14.3159 159.947 17.4111V29.5312H153.799V18.1475C153.799 16.8381 153.486 15.8038 152.861 15.0449C152.207 14.286 151.349 13.9062 150.288 13.9062C149.227 13.9063 148.377 14.2633 147.737 14.9775C147.098 15.6918 146.778 16.7782 146.778 18.2363V29.5312H140.564V18.0137C140.506 16.7339 140.165 15.7292 139.54 15C138.901 14.2709 138.072 13.9063 137.055 13.9062C136.037 13.9062 135.194 14.2558 134.525 14.9551C133.857 15.6544 133.523 16.7484 133.522 18.2363V29.5312H127.309V8.19238H133.522V11.2949C134.031 10.1937 134.758 9.3225 135.703 8.68262C136.72 8.07277 137.81 7.76765 138.973 7.76758C142.272 7.76758 144.503 9.01782 145.666 11.5176C147.192 8.9879 149.264 7.72368 151.88 7.72363ZM110.799 13.7725C109.447 13.7725 108.205 14.2564 107.071 15.2236C106.025 16.2057 105.501 17.418 105.501 18.8613C105.501 20.3197 106.025 21.5252 107.071 22.4775C108.089 23.4298 109.302 23.9062 110.712 23.9062C112.122 23.9062 113.321 23.4375 114.31 22.5C115.298 21.5625 115.792 20.3493 115.792 18.8613C115.792 17.3735 115.298 16.1535 114.31 15.2012C113.321 14.2488 112.151 13.7725 110.799 13.7725ZM85.8301 13.3037C84.7836 13.2739 83.8094 13.5864 82.9082 14.2412C81.9782 14.8959 81.3966 15.8034 81.1641 16.9639H90.1904C90.045 15.8036 89.5437 14.911 88.6865 14.2861C87.829 13.6611 86.8766 13.3335 85.8301 13.3037Z" fill="white"/>
</g>
</svg>
